:version 1.10
:name ASF
:units
  mass 1
  length 1
  angle deg
:documentation
  ASF file generated by Kaydara
:root
  axis xyz
  order  tx ty tz rx ry rz
  position 0 0 0
  orientation 0 0 0
:bonedata
  begin
    id 1
    name SpineDummy
    direction 0.999998 -0.00179978 1.38929e-006
    length 3.60008
    axis 0 0 0 xyz
  end
  begin
    id 2
    name Spine
    direction 0.964365 0.262802 0.0305839
    length 8.13928
    axis 1.33928 -1.75354 15.2838 xyz
    dof rx ry rz
  end
  begin
    id 3
    name Spine1
    direction 0.811168 0.572065 0.12144
    length 7.14954
    axis 2.2224 -6.9761 35.2157 xyz
    dof rx ry rz
  end
  begin
    id 4
    name Neck
    direction 0 0 0
    length 0
    axis 2.2224 -6.9761 35.2157 xyz
    dof rx ry rz
  end
  begin
    id 5
    name HeadDummy
    direction 0.810939 0.572387 0.121455
    length 3.55534
    axis 2.2224 -6.9761 35.2157 xyz
  end
  begin
    id 6
    name Head
    direction 0.998226 -0.000232542 0.0595419
    length 7.35666
    axis -3.03688 -3.41352 -0.0133467 xyz
    dof rx ry rz
  end
  begin
    id 7
    name R_ClavicleDummy
    direction 0.531669 -0.194489 -0.824319
    length 2.49392
    axis 2.2224 -6.9761 35.2157 xyz
  end
  begin
    id 8
    name R_Clavicle
    direction -0.155119 0.0480802 -0.986725
    length 4.485
    axis -54.2764 80.6538 162.779 xyz
    dof rx ry rz
  end
  begin
    id 9
    name R_UpperArm
    direction -0.955567 0.200068 -0.216484
    length 10.1122
    axis -72.9943 12.5026 168.175 xyz
    dof rx ry rz
  end
  begin
    id 10
    name R_Forearm
    direction -0.61433 0.385743 0.688332
    length 9.39148
    axis -117.015 -43.4982 147.875 xyz
    dof rx ry rz
  end
  begin
    id 11
    name R_Hand
    direction -0.699429 0.0170333 0.714499
    length 3.66324
    axis -45.0303 -36.7097 175.478 xyz
    dof rx ry rz
  end
  begin
    id 12
    name L_ClavicleDummy
    direction 0.40287 -0.36502 0.839319
    length 2.49392
    axis 2.2224 -6.9761 35.2157 xyz
  end
  begin
    id 13
    name L_Clavicle
    direction -0.231271 -0.0726419 0.970174
    length 4.485
    axis 18.4357 -75.9711 -162.563 xyz
    dof rx ry rz
  end
  begin
    id 14
    name L_UpperArm
    direction -0.917494 0.144359 0.370629
    length 10.1122
    axis 56.0417 -21.7544 171.058 xyz
    dof rx ry rz
  end
  begin
    id 15
    name L_Forearm
    direction -0.496786 0.615074 -0.612281
    length 9.39148
    axis 89.8094 37.7546 128.927 xyz
    dof rx ry rz
  end
  begin
    id 16
    name L_Hand
    direction -0.409932 0.64962 -0.640274
    length 3.66324
    axis -0.424369 32.133 128.52 xyz
    dof rx ry rz
  end
  begin
    id 17
    name L_ThighDummy
    direction -1.84081e-006 1.87549e-006 1
    length 3.13049
    axis 0 0 0 xyz
  end
  begin
    id 18
    name L_Thigh
    direction -0.947739 0.307978 0.083308
    length 17.9961
    axis 173.219 -4.77873 161.998 xyz
    dof rx ry rz
  end
  begin
    id 19
    name L_Calf
    direction -0.728814 -0.684427 0.0197583
    length 13.3367
    axis 167.331 -1.13214 -136.799 xyz
    dof rx ry rz
  end
  begin
    id 20
    name L_Foot
    direction -0.9028 0.418719 0.0981191
    length 5.8674
    axis 163.436 11.5135 -155.37 xyz
    dof rx ry rz
  end
  begin
    id 21
    name L_Toe0
    direction -0.35341 0.886259 0.299411
    length 4.75286
    axis 169.316 -17.4222 111.74 xyz
    dof rx ry rz
  end
  begin
    id 22
    name R_ThighDummy
    direction 9.32778e-007 -8.82053e-007 -1
    length 3.13049
    axis 0 0 0 xyz
  end
  begin
    id 23
    name R_Thigh
    direction -0.925064 0.37528 -0.0585023
    length 17.9961
    axis -178.698 3.35385 157.919 xyz
    dof rx ry rz
  end
  begin
    id 24
    name R_Calf
    direction -0.68969 -0.718776 -0.0876886
    length 13.3367
    axis -160.504 5.03065 -133.817 xyz
    dof rx ry rz
  end
  begin
    id 25
    name R_Foot
    direction -0.857405 0.418858 -0.299022
    length 5.8674
    axis -161.328 4.38911 -154.413 xyz
    dof rx ry rz
  end
  begin
    id 26
    name R_Toe0
    direction -0.100745 0.952789 -0.286433
    length 4.75286
    axis 171.683 16.6445 96.0359 xyz
    dof rx ry rz
  end
:hierarchy
  begin
    root SpineDummy L_ThighDummy R_ThighDummy
    SpineDummy Spine
    Spine Spine1
    Spine1 Neck
    Neck HeadDummy R_ClavicleDummy L_ClavicleDummy
    HeadDummy Head
    R_ClavicleDummy R_Clavicle
    R_Clavicle R_UpperArm
    R_UpperArm R_Forearm
    R_Forearm R_Hand
    L_ClavicleDummy L_Clavicle
    L_Clavicle L_UpperArm
    L_UpperArm L_Forearm
    L_Forearm L_Hand
    L_ThighDummy L_Thigh
    L_Thigh L_Calf
    L_Calf L_Foot
    L_Foot L_Toe0
    R_ThighDummy R_Thigh
    R_Thigh R_Calf
    R_Calf R_Foot
    R_Foot R_Toe0
  end

:SAMPLES-PER-SECOND 30
:FULLY-SPECIFIED
:DEGREES
41
root  0.662884 32.5039 -46.5622 92.2578 5.64062 91.7448
Spine  -3.49243 -7.00473 -16.0372
Spine1  -2.70526 11.1941 4.5761
Neck  3.97569e-016 0 -2.38542e-015
Head  50.1253 -8.01561 25.6729
R_Clavicle  0.421608 -21.6086 1.964
R_UpperArm  23.2262 -10.1023 37.0451
R_Forearm  17.1163 -30.7323 20.9843
R_Hand  -1.03682 8.9508 -19.2844
L_Clavicle  -0.490579 17.0499 -0.765562
L_UpperArm  15.035 -2.16007 7.18688
L_Forearm  -12.2753 25.9835 34.1301
L_Hand  -0.0393114 -1.10534 -1.08655
L_Thigh  -8.93076 -0.916314 -19.6881
L_Calf  1.4492 -6.26931 27.3057
L_Foot  7.7048 12.5828 14.3765
L_Toe0  0.505156 0.0318543 -6.13612
R_Thigh  7.46113 -4.06878 -2.28065
R_Calf  -3.45141 10.4757 34.9091
R_Foot  1.22605 -1.14971 -12.6813
R_Toe0  -1.78504 -0.272889 -17.3266
42
root  0.622843 32.4272 -45.8762 91.7874 5.43278 92.3345
Spine  -3.75852 -7.99495 -15.9875
Spine1  -3.01614 13.1009 3.26519
Neck  3.97569e-016 0 -2.38542e-015
Head  48.1698 -9.11965 26.4161
R_Clavicle  0.422592 -21.769 2.1289
R_UpperArm  21.5654 -10.2715 38.153
R_Forearm  20.5718 -28.6474 20.9422
R_Hand  -1.04667 9.12018 -19.3897
L_Clavicle  -0.505953 17.4723 -0.758297
L_UpperArm  15.5553 -2.29951 7.7601
L_Forearm  -12.288 26.802 34.7069
L_Hand  -0.0372641 -1.30671 -1.09905
L_Thigh  -7.27883 -1.26494 -21.3459
L_Calf  -0.216779 -7.52502 28.3214
L_Foot  7.72447 12.113 14.9564
L_Toe0  0.505156 0.0320637 -6.13612
R_Thigh  6.66475 -3.98423 -1.04901
R_Calf  -3.75101 10.7051 35.7811
R_Foot  1.11931 -3.46609 -14.904
R_Toe0  -1.78853 -0.272808 -17.3235
43
root  0.494639 32.2587 -45.2065 91.1691 5.37851 92.4943
Spine  -3.8321 -7.98398 -15.6407
Spine1  -3.15466 14.4596 2.47045
Neck  3.97569e-016 0 -2.38542e-015
Head  45.499 -10.6558 26.2614
R_Clavicle  0.422903 -21.9445 2.24415
R_UpperArm  19.3681 -9.41761 38.4123
R_Forearm  24.8238 -27.272 20.84
R_Hand  -1.17378 9.66369 -20.3279
L_Clavicle  -0.527803 18.2457 -0.447671
L_UpperArm  13.4241 -2.38141 7.90037
L_Forearm  -10.3437 28.3812 35.271
L_Hand  -0.0357882 -1.60629 -1.17254
L_Thigh  -7.38403 -1.24639 -22.4473
L_Calf  -0.673509 -7.22157 28.0304
L_Foot  7.69692 10.9825 16.1788
L_Toe0  0.505156 0.0325993 -6.13611
R_Thigh  5.064 -3.33912 -0.0218552
R_Calf  -3.38487 10.0037 33.0911
R_Foot  1.05019 -3.04958 -13.8527
R_Toe0  -1.78853 -0.272821 -17.3235
44
root  0.299928 32.0173 -44.545 90.1388 5.70883 92.2524
Spine  -3.75102 -6.85817 -14.6824
Spine1  -3.11324 15.0412 2.35629
Neck  3.97569e-016 0 -2.38542e-015
Head  42.8031 -12.7041 24.9586
R_Clavicle  0.422779 -21.9112 2.18442
R_UpperArm  17.6507 -7.42048 37.1947
R_Forearm  27.9698 -27.1193 20.7374
R_Hand  -1.3506 10.1137 -21.5402
L_Clavicle  -0.534935 18.8065 -0.00319703
L_UpperArm  6.41903 -1.28461 7.98698
L_Forearm  -5.58883 30.3461 35.8519
L_Hand  -0.0419606 -2.08973 -1.56625
L_Thigh  -9.31887 -0.902008 -23.6265
L_Calf  -0.00625418 -5.4249 27.0376
L_Foot  7.52776 9.19447 17.8605
L_Toe0  0.509463 0.0338763 -6.1785
R_Thigh  2.74143 -1.9971 0.520203
R_Calf  -2.72442 8.70151 28.5598
R_Foot  0.757422 -1.91322 -10.0928
R_Toe0  -1.78853 -0.272831 -17.3235
45
root  0.0745478 31.7675 -43.8788 89.307 6.53416 92.0747
Spine  -3.7204 -5.83791 -13.1969
Spine1  -2.92657 15.6888 3.30976
Neck  3.97569e-016 0 -2.38542e-015
Head  40.1553 -14.6633 22.8588
R_Clavicle  0.42025 -21.4547 1.79804
R_UpperArm  16.4037 -5.03596 34.6508
R_Forearm  29.6344 -27.1168 20.6684
R_Hand  -1.4801 10.2928 -22.4036
L_Clavicle  -0.522873 18.4208 0.0421609
L_UpperArm  -2.3541 1.55755 8.51942
L_Forearm  -1.93331 31.3028 36.4551
L_Hand  -0.0607994 -3.08856 -3.08706
L_Thigh  -10.4801 -0.729222 -25.232
L_Calf  -0.038681 -3.44294 25.9847
L_Foot  7.09831 7.1315 19.227
L_Toe0  0.484399 0.0318706 -5.94791
R_Thigh  1.44923 -1.00521 0.250602
R_Calf  -2.80035 7.55838 24.4946
R_Foot  0.47961 -1.11951 -6.52288
R_Toe0  -1.78853 -0.272838 -17.3235
46
root  -0.179226 31.5864 -43.225 89.5319 7.35173 91.9832
Spine  -3.97759 -5.32322 -12.028
Spine1  -2.70511 16.905 5.34138
Neck  3.97569e-016 0 -2.38542e-015
Head  37.2365 -15.8577 20.8897
R_Clavicle  0.410157 -20.7124 1.26352
R_UpperArm  14.5915 -3.16132 31.5766
R_Forearm  31.3734 -25.623 20.6139
R_Hand  -1.55771 10.3418 -22.9191
L_Clavicle  -0.493977 17.2159 -0.496812
L_UpperArm  -7.64969 5.1118 9.48005
L_Forearm  -2.76448 31.2237 36.8094
L_Hand  -0.0593055 -4.07654 -5.45103
L_Thigh  -7.73305 -0.528826 -25.3503
L_Calf  -2.5149 -2.97874 22.2323
L_Foot  6.24997 5.3703 18.8213
L_Toe0  0.186422 0.0174122 -2.95247
R_Thigh  2.09395 -0.670121 -0.535091
R_Calf  -3.17871 6.71933 21.6525
R_Foot  0.179059 -0.911299 -3.62427
R_Toe0  -1.78853 -0.272843 -17.3235
47
root  -0.484115 31.42 -42.5989 90.5309 7.6091 91.3887
Spine  -4.37566 -4.01416 -11.6923
Spine1  -2.49938 17.8038 7.61206
Neck  3.97569e-016 0 -2.38542e-015
Head  33.9274 -16.2262 19.8101
R_Clavicle  0.39958 -20.0769 1.00121
R_UpperArm  12.912 -1.91508 28.5368
R_Forearm  32.7576 -22.7687 19.9673
R_Hand  -1.61282 10.3564 -23.2853
L_Clavicle  -0.464489 16.2959 -1.31323
L_UpperArm  -8.17961 7.73525 10.8132
L_Forearm  -5.51736 31.1908 36.8568
L_Hand  -0.0803523 -4.00904 -6.59753
L_Thigh  -5.22591 0.571027 -21.8176
L_Calf  -3.13271 -1.79335 12.8606
L_Foot  4.6747 4.04882 14.8467
L_Toe0  -0.58116 0.00600073 6.34466
R_Thigh  3.74018 -0.0219851 -1.19806
R_Calf  -3.08135 6.04958 19.4768
R_Foot  -0.10062 -0.780039 -1.02138
R_Toe0  -1.78853 -0.272845 -17.3235
48
root  -0.833325 31.1629 -41.9895 91.1403 7.60764 90.0217
Spine  -4.50586 -1.11584 -11.676
Spine1  -2.21191 17.3847 9.46772
Neck  3.97569e-016 0 -2.38542e-015
Head  30.4909 -15.9935 19.3683
R_Clavicle  0.397108 -19.6135 1.10129
R_UpperArm  13.4887 -0.747307 25.3762
R_Forearm  31.3475 -20.2334 17.8558
R_Hand  -1.61616 10.2894 -23.3169
L_Clavicle  -0.474708 16.4666 -1.98954
L_UpperArm  -5.66899 9.0062 12.66
L_Forearm  -6.85616 30.8963 36.6149
L_Hand  -0.124495 -2.88335 -5.49502
L_Thigh  -3.4056 2.72785 -16.3563
L_Calf  -2.17734 -0.22533 1.28698
L_Foot  2.41067 3.25479 6.88909
L_Toe0  -1.92836 0.374499 18.9291
R_Thigh  5.09352 1.65603 -1.51131
R_Calf  -2.67144 5.30623 17.0991
R_Foot  -0.343259 -0.480347 1.70597
R_Toe0  -1.78853 -0.272846 -17.3235
49
root  -1.17807 30.8611 -41.3575 90.8165 8.05667 88.8601
Spine  -4.17524 1.8418 -11.3439
Spine1  -1.66659 15.8314 11.2804
Neck  3.97569e-016 0 -2.38542e-015
Head  27.3448 -15.2176 18.6889
R_Clavicle  0.394449 -18.9194 1.23171
R_UpperArm  13.4611 0.767054 21.6595
R_Forearm  29.0933 -17.9822 15.6166
R_Hand  -1.53868 10.101 -22.818
L_Clavicle  -0.52161 17.3519 -2.36856
L_UpperArm  -3.18283 9.80012 14.9029
L_Forearm  -6.54694 30.0778 36.2657
L_Hand  -0.128544 -1.63164 -3.86123
L_Thigh  -2.39755 4.57256 -11.4144
L_Calf  -1.8776 1.19228 -9.09427
L_Foot  0.871154 4.79289 -1.21054
L_Toe0  -4.63467 1.62776 21.929
R_Thigh  5.82102 3.32912 -2.03527
R_Calf  -2.67409 4.49219 14.5139
R_Foot  -0.633983 -0.321797 4.52835
R_Toe0  -1.78853 -0.272845 -17.3236
50
root  -1.48292 30.6691 -40.6587 90.0582 8.99714 88.6171
Spine  -3.59124 3.42909 -10.9135
Spine1  -0.87889 13.9836 13.3924
Neck  3.97569e-016 0 -2.38542e-015
Head  24.8054 -14.1079 17.614
R_Clavicle  0.386743 -17.8987 1.25605
R_UpperArm  12.1332 2.6526 17.5042
R_Forearm  27.2126 -16.3221 14.0529
R_Hand  -1.43628 9.83281 -22.1405
L_Clavicle  -0.575024 18.2946 -2.61231
L_UpperArm  -2.70753 10.7545 17.2074
L_Forearm  -6.04477 29.9675 36.2214
L_Hand  -0.124191 -1.07384 -3.22121
L_Thigh  -2.17047 5.11268 -8.21454
L_Calf  -2.61039 2.16687 -16.3951
L_Foot  0.815592 7.74617 -4.0913
L_Toe0  -6.73516 1.81201 10.3866
R_Thigh  6.1296 4.03806 -3.4208
R_Calf  -3.08825 3.88305 12.5926
R_Foot  -0.981586 -0.421205 7.09755
R_Toe0  -1.78854 -0.272843 -17.3236
51
root  -1.75475 30.6729 -39.8721 89.5228 9.80214 89.0846
Spine  -2.95237 3.97578 -10.9454
Spine1  -0.197002 12.0775 14.9325
Neck  3.97569e-016 0 -2.38542e-015
Head  22.832 -13.1755 17.0723
R_Clavicle  0.388476 -17.165 1.42173
R_UpperArm  9.46742 4.68615 13.7187
R_Forearm  26.2219 -15.6647 13.4446
R_Hand  -1.37248 9.62579 -21.7094
L_Clavicle  -0.630875 19.2148 -2.82721
L_UpperArm  -4.92751 11.8151 19.3587
L_Forearm  -4.40487 32.0217 36.8751
L_Hand  -0.117846 -1.12523 -3.09002
L_Thigh  -2.10366 4.79803 -5.91664
L_Calf  -2.39473 2.64308 -20.0591
L_Foot  0.98462 7.83889 -3.48739
L_Toe0  -6.75516 0.936198 1.09342
R_Thigh  5.89608 4.05828 -5.54757
R_Calf  -3.2003 3.69431 12.0007
R_Foot  -1.2416 -0.444969 9.12081
R_Toe0  -1.78854 -0.272839 -17.3236
